<svg width="240" height="240" viewBox="0 0 240 240" fill="none" xmlns="http://www.w3.org/2000/svg">
  <rect width="240" height="240" rx="120" fill="#E6F2FF"/>
  <circle cx="120" cy="120" r="110" fill="#6CB7F0"/>
  <ellipse cx="120" cy="214" rx="74" ry="52" fill="#EFE6DC"/>
  <path d="M82 98C82 75.9086 99.9086 58 122 58C144.091 58 162 75.9086 162 98V127H82V98Z" fill="#2F2B2A"/>
  <path d="M96 97C96 79.3269 110.327 65 128 65C145.673 65 160 79.3269 160 97V118H96V97Z" fill="#433D3B"/>
  <circle cx="121" cy="105" r="40" fill="#F6D7BC"/>
  <path d="M109 108C109 105.791 107.209 104 105 104C102.791 104 101 105.791 101 108V111C101 113.209 102.791 115 105 115C107.209 115 109 113.209 109 111V108Z" fill="#2D2A2A"/>
  <path d="M141 108C141 105.791 139.209 104 137 104C134.791 104 133 105.791 133 108V111C133 113.209 134.791 115 137 115C139.209 115 141 113.209 141 111V108Z" fill="#2D2A2A"/>
  <path d="M114 123C118.333 127 124 127.333 128 123" stroke="#B4744F" stroke-width="4" stroke-linecap="round"/>
  <path d="M92 98C94.8333 94.1667 98.6 91.6 103.3 90.3C106.433 89.4333 110 88.6667 114 88C123 86.5 131.8 84.2333 140.4 81.2C146.133 79.1778 151.333 76.1111 156 72C158.167 77.1667 159.667 81.8333 160.5 86C161.333 90.1667 161.167 95.1667 160 101C155.333 98.6667 150.333 97 145 96C139.667 95 134 94.5 128 94.5C118.333 94.5 110 95.1667 103 96.5C98.3333 97.3333 94.6667 97.8333 92 98Z" fill="#433D3B"/>
  <path d="M98 153C98 139.745 108.745 129 122 129H126C139.255 129 150 139.745 150 153V165H98V153Z" fill="#FBF8F4"/>
  <rect x="78" y="165" width="88" height="33" rx="9" fill="#FBF8F4"/>
  <path d="M86 177H157" stroke="#D1C3B7" stroke-width="3" stroke-linecap="round"/>
  <path d="M100 190H144" stroke="#D1C3B7" stroke-width="3" stroke-linecap="round"/>
</svg>
